<svg width="41" height="38" viewBox="0 0 41 38" fill="none" xmlns="http://www.w3.org/2000/svg">
<path d="M35.3108 14.983C35.3108 15.2492 35.5286 15.467 35.7947 15.467H39.6662C39.9324 15.467 40.1501 15.2492 40.1501 14.983C40.1501 14.7169 39.9324 14.4991 39.6662 14.4991H35.7947C35.5286 14.4991 35.3108 14.7169 35.3108 14.983ZM39.6662 15.9509H35.7947C35.5286 15.9509 35.3108 16.1687 35.3108 16.4348C35.3108 16.701 35.5286 16.9188 35.7947 16.9188H39.6662C39.9324 16.9188 40.1501 16.701 40.1501 16.4348C40.1501 16.1687 39.9324 15.9509 39.6662 15.9509ZM6.84599 8.68227C6.92341 8.72582 7.00568 8.74518 7.08795 8.74518C7.25733 8.74518 7.41702 8.65807 7.50897 8.50321C7.66867 8.23221 7.8332 7.96605 8.00258 7.70472C8.07381 7.59756 8.09956 7.46648 8.07414 7.34033C8.04873 7.21418 7.97425 7.10329 7.86708 7.03206C7.75991 6.96083 7.62883 6.93509 7.50268 6.9605C7.37654 6.98591 7.26565 7.06039 7.19442 7.16756C7.01052 7.4434 6.83631 7.72892 6.66693 8.01928C6.53143 8.25157 6.6137 8.54677 6.84115 8.68227H6.84599ZM8.60265 6.56265C8.743 6.56265 8.88334 6.50458 8.97528 6.38359C9.31887 5.96257 9.6915 5.55123 10.0835 5.16893C10.1283 5.12412 10.1638 5.07093 10.1881 5.0124C10.2123 4.95386 10.2248 4.89112 10.2248 4.82775C10.2248 4.76439 10.2123 4.70165 10.1881 4.64311C10.1638 4.58458 10.1283 4.53139 10.0835 4.48658C10.0387 4.44178 9.98549 4.40624 9.92695 4.38199C9.86841 4.35775 9.80567 4.34527 9.74231 4.34527C9.67895 4.34527 9.61621 4.35775 9.55767 4.38199C9.49913 4.40624 9.44594 4.44178 9.40114 4.48658C8.9898 4.89792 8.59298 5.32862 8.22519 5.77868C8.18472 5.82788 8.15436 5.88459 8.13586 5.94555C8.11735 6.00651 8.11107 6.07052 8.11736 6.13392C8.12366 6.19732 8.14241 6.25885 8.17254 6.31498C8.20267 6.37111 8.24358 6.42074 8.29294 6.46102C8.38489 6.53361 8.49135 6.57233 8.59782 6.57233L8.60265 6.56265ZM11.0078 4.17687C11.1143 4.17687 11.2207 4.14299 11.3127 4.0704C11.7385 3.72681 12.1886 3.40258 12.6435 3.10738C12.8661 2.9622 12.9338 2.66216 12.7838 2.43955C12.6338 2.21695 12.3386 2.1492 12.116 2.29438C11.6321 2.60893 11.1578 2.95252 10.7029 3.31547C10.6252 3.37857 10.5689 3.46419 10.5417 3.56057C10.5146 3.65695 10.518 3.75937 10.5514 3.85376C10.5848 3.94815 10.6466 4.02988 10.7283 4.08773C10.81 4.14559 10.9077 4.17672 11.0078 4.17687ZM13.8485 2.33793C13.9211 2.33793 13.9985 2.31857 14.0662 2.2847C14.3469 2.14436 14.6276 2.00886 14.9131 1.88303C15.1599 1.77657 15.2712 1.49105 15.1648 1.24425C15.0583 1.00228 14.7728 0.886136 14.526 0.992601C14.2211 1.1281 13.9211 1.26844 13.6259 1.41846C13.3887 1.53944 13.2919 1.8298 13.4129 2.07177C13.5 2.24114 13.6694 2.33793 13.8436 2.33793H13.8485ZM35.0446 8.50805C35.1318 8.66291 35.2963 8.75002 35.4657 8.75002C35.5479 8.75002 35.6302 8.73066 35.7076 8.68711C35.9399 8.55161 36.0174 8.25641 35.8819 8.02412C35.7173 7.73376 35.5383 7.45308 35.3544 7.1724C35.3192 7.1192 35.2739 7.07348 35.221 7.03786C35.1681 7.00223 35.1087 6.97741 35.0462 6.96482C34.9837 6.95223 34.9193 6.95211 34.8568 6.96448C34.7942 6.97685 34.7347 7.00146 34.6817 7.0369C34.4591 7.18208 34.3962 7.48212 34.5462 7.70956C34.7204 7.97089 34.885 8.23705 35.0398 8.50805H35.0446ZM29.9101 3.10738C30.3699 3.40258 30.8151 3.72681 31.2409 4.0704C31.3413 4.1506 31.4693 4.18796 31.597 4.17437C31.7248 4.16078 31.842 4.09733 31.9233 3.99781C32.0927 3.78972 32.0588 3.48485 31.8507 3.31547C31.3958 2.95252 30.9216 2.60893 30.4376 2.29438C30.3844 2.2597 30.3247 2.23594 30.2622 2.22447C30.1997 2.213 30.1355 2.21404 30.0734 2.22755C30.0113 2.24105 29.9525 2.26674 29.9004 2.30313C29.8482 2.33952 29.8039 2.38589 29.7698 2.43955C29.7002 2.54683 29.6759 2.67728 29.7022 2.80241C29.7285 2.92755 29.8033 3.03718 29.9101 3.10738ZM33.5783 6.38359C33.6234 6.43911 33.6801 6.48395 33.7446 6.51491C33.809 6.54587 33.8795 6.56218 33.951 6.56265C34.0574 6.56265 34.1687 6.52877 34.2558 6.45134C34.3052 6.41106 34.3461 6.36143 34.3762 6.3053C34.4064 6.24917 34.4251 6.18764 34.4314 6.12424C34.4377 6.06085 34.4314 5.99683 34.4129 5.93587C34.3944 5.87491 34.3641 5.8182 34.3236 5.769C33.9558 5.32378 33.5638 4.88825 33.1476 4.47691C33.1028 4.4321 33.0496 4.39656 32.9911 4.37231C32.9326 4.34807 32.8698 4.33559 32.8065 4.33559C32.7431 4.33559 32.6804 4.34807 32.6218 4.37231C32.5633 4.39656 32.5101 4.4321 32.4653 4.47691C32.4205 4.52171 32.385 4.5749 32.3607 4.63344C32.3365 4.69197 32.324 4.75472 32.324 4.81808C32.324 4.88144 32.3365 4.94418 32.3607 5.00272C32.385 5.06126 32.4205 5.11444 32.4653 5.15925C32.8524 5.54639 33.2251 5.95289 33.5735 6.37391L33.5783 6.38359ZM27.6357 1.88303C27.9212 2.00886 28.2067 2.14436 28.4825 2.2847C28.5551 2.31857 28.6277 2.33793 28.7003 2.33793C28.8095 2.33761 28.9153 2.30054 29.0008 2.23272C29.0863 2.16489 29.1465 2.07025 29.1717 1.96404C29.1968 1.85784 29.1855 1.74626 29.1395 1.64728C29.0935 1.54831 29.0155 1.4677 28.9181 1.41846C28.6229 1.26844 28.3228 1.1281 28.018 0.992601C27.7712 0.886136 27.4856 0.997441 27.3792 1.24425C27.2727 1.49105 27.3792 1.77657 27.6308 1.88303H27.6357ZM30.7957 21.7145C29.2762 22.8034 23.8707 28.3347 23.6529 28.5573C22.8553 29.3157 21.7967 29.7384 20.6961 29.7381H16.0649C15.8084 29.7381 14.9663 29.651 14.9663 28.5912C14.9663 27.5314 15.9003 27.4685 16.0891 27.4636H20.9284C21.6785 27.4298 23.1012 26.9313 23.1012 25.2908C23.1012 24.7439 22.9319 24.3326 22.6754 24.0277C23.6626 23.8342 24.6256 23.4712 25.2886 23.0889L25.9177 23.7325C26.0968 23.9164 26.4258 23.9164 26.6097 23.7325L28.2696 22.0339C28.4535 21.8452 28.4535 21.5452 28.2696 21.3564L27.6405 20.7128C28.1051 19.9675 28.4342 19.1545 28.6229 18.2883H29.5036C29.7698 18.2883 29.9876 18.0705 29.9876 17.8044V15.4041C29.9876 15.1379 29.7698 14.9201 29.5036 14.9201H28.6229C28.4342 14.0539 28.1051 13.2457 27.6405 12.4956L28.2696 11.852C28.4535 11.6633 28.4535 11.3632 28.2696 11.1745L26.6097 9.47591C26.4307 9.29202 26.1016 9.29202 25.9177 9.47591L25.2983 10.1099C24.5724 9.64045 23.7787 9.30654 22.9367 9.11296V8.20318C22.9367 7.93701 22.7189 7.71924 22.4528 7.71924H20.1009C19.8347 7.71924 19.6169 7.93701 19.6169 8.20318V9.11296C18.7749 9.30654 17.9812 9.64045 17.2553 10.1099L16.6359 9.47591C16.4569 9.29202 16.1278 9.29202 15.9439 9.47591L14.284 11.1745C14.1001 11.3632 14.1001 11.6633 14.284 11.852L14.9131 12.4956C14.4485 13.2409 14.1195 14.0539 13.9307 14.9201H13.05C12.7838 14.9201 12.5661 15.1379 12.5661 15.4041V17.8044C12.5661 18.0705 12.7838 18.2883 13.05 18.2883H13.9307C14.1195 19.1545 14.4485 19.9627 14.9131 20.7128L14.284 21.3564C14.1001 21.5452 14.1001 21.8452 14.284 22.0339L15.2422 23.0115C14.9228 22.8808 14.5937 22.6969 14.2598 22.4501C13.4748 21.8631 12.5203 21.5472 11.5401 21.55H11.0949C9.9867 21.55 8.91237 21.9565 8.08001 22.6921L0.63231 29.2639C0.530685 29.351 0.472613 29.4768 0.467773 29.6123C0.467773 29.7429 0.511327 29.8736 0.608113 29.9704L7.63963 37.1084C7.68445 37.1541 7.7379 37.1905 7.79688 37.2154C7.85586 37.2403 7.9192 37.2533 7.98322 37.2536C8.11388 37.2536 8.23971 37.2003 8.32681 37.1035L9.87055 35.4969C10.3624 35.0471 11.0043 34.7969 11.6708 34.7952H22.7915C23.8562 34.7952 24.8676 34.3306 25.5548 33.5224L32.654 25.6295C34.1639 23.8729 34.0332 22.5179 33.409 21.8307C32.7702 21.1338 31.6717 21.0854 30.7909 21.7194L30.7957 21.7145ZM14.8115 17.7269C14.7728 17.4946 14.5695 17.3204 14.3324 17.3204H13.5339V15.888H14.3324C14.4476 15.8883 14.5591 15.8476 14.6469 15.7731C14.7347 15.6986 14.7931 15.5952 14.8115 15.4815C14.976 14.4749 15.3535 13.5409 15.9342 12.7134C16.0697 12.5247 16.0455 12.2634 15.881 12.0988L15.3099 11.5133L16.2923 10.5067L16.8537 11.0777C17.0231 11.2519 17.2892 11.2713 17.4828 11.131C18.291 10.5406 19.2007 10.1583 20.188 9.98888C20.3008 9.96942 20.403 9.91061 20.4765 9.8229C20.5501 9.73519 20.5902 9.62425 20.5896 9.50979V8.68711H21.9737V9.50979C21.9737 9.74691 22.143 9.94533 22.3753 9.98888C23.3577 10.1583 24.2675 10.5406 25.0805 11.131C25.2741 11.2713 25.5451 11.2519 25.7096 11.0777L26.271 10.5067L27.2534 11.5133L26.6823 12.0988C26.6033 12.1791 26.5548 12.2844 26.5451 12.3965C26.5354 12.5087 26.5651 12.6208 26.6291 12.7134C27.2098 13.5409 27.5873 14.4749 27.7518 15.4815C27.7905 15.7138 27.9938 15.888 28.2309 15.888H29.0294V17.3204H28.2309C28.1157 17.3201 28.0042 17.3609 27.9164 17.4354C27.8286 17.5099 27.7702 17.6133 27.7518 17.7269C27.5873 18.7335 27.2098 19.6675 26.6291 20.495C26.4936 20.6838 26.5178 20.9451 26.6823 21.1096L27.2534 21.6952L26.271 22.7017L25.7096 22.1307C25.5402 21.9613 25.2741 21.9371 25.0805 22.0775C23.2174 23.3841 19.4863 23.7858 17.4876 22.0775C17.2941 21.9371 17.0279 21.9613 16.8585 22.1307L16.2972 22.7017L15.3148 21.6952L15.8858 21.1096C15.9648 21.0294 16.0133 20.9241 16.0231 20.8119C16.0328 20.6997 16.0031 20.5877 15.9391 20.495C15.3583 19.6675 14.9809 18.7335 14.8163 17.7269H14.8115ZM31.933 24.9859L24.8337 32.8788C24.5835 33.1736 24.272 33.4102 23.921 33.5724C23.57 33.7345 23.1878 33.8182 22.8012 33.8176H11.6756C10.7658 33.8176 9.89475 34.1564 9.19789 34.7952L7.97838 36.0631L1.6534 29.6462L8.7188 23.4131C9.37442 22.8331 10.2196 22.513 11.0949 22.513H11.5401C12.3144 22.513 13.0548 22.7598 13.6791 23.2244C14.5647 23.8825 15.4261 24.2019 16.3214 24.2019H20.8606C21.0736 24.2019 22.1334 24.2794 22.1334 25.2908C22.1334 26.3699 21.0929 26.4813 20.909 26.4958H16.0939C16.002 26.4958 15.1696 26.5006 14.5647 27.0958C14.1872 27.4685 13.9985 27.9718 13.9985 28.5864C13.9985 29.2009 14.1921 29.7284 14.5744 30.1059C15.1696 30.6963 15.9729 30.7011 16.0697 30.7011H20.6961C22.0463 30.7011 23.3335 30.1882 24.3304 29.2445C24.3836 29.1864 29.9053 23.539 31.3571 22.5033C31.8265 22.1694 32.4024 22.1597 32.6976 22.4791C33.0267 22.8421 33.0218 23.718 31.933 24.9859Z" fill="white"/>
</svg>
